<?xml version="1.0" encoding="utf-8"?>
<!-- Generator: Adobe Illustrator 23.0.0, SVG Export Plug-In . SVG Version: 6.00 Build 0)  -->
<svg version="1.1" id="Camada_1" xmlns="http://www.w3.org/2000/svg" xmlns:xlink="http://www.w3.org/1999/xlink" x="0px" y="0px"
	 viewBox="0 0 1000 1000" style="enable-background:new 0 0 1000 1000;" xml:space="preserve">
<style type="text/css">
	.st0{fill:url(#SVGID_1_);}
	.st1{fill:#FFFFFF;}
</style>
<g>
	<linearGradient id="SVGID_1_" gradientUnits="userSpaceOnUse" x1="501.2967" y1="-25.8009" x2="498.1461" y2="1251.7167">
		<stop  offset="0" style="stop-color:#43D973"/>
		<stop  offset="0.1266" style="stop-color:#3ECA6E"/>
		<stop  offset="0.3505" style="stop-color:#36B566"/>
		<stop  offset="0.5704" style="stop-color:#32A862"/>
		<stop  offset="0.7799" style="stop-color:#30A460"/>
	</linearGradient>
	<path class="st0" d="M798.1,1000H201.9C90.4,1000,0,909.6,0,798.1V201.9C0,90.4,90.4,0,201.9,0h596.3C909.6,0,1000,90.4,1000,201.9
		v596.3C1000,909.6,909.6,1000,798.1,1000z"/>
</g>
<g>
	<path class="st1" d="M384.5,215.4l285.5,432v-436c0-28.3,6-49.6,18.2-63.8c12.1-14.2,28.5-21.3,49.1-21.3c21.3,0,38,7.1,50.3,21.3
		s18.4,35.5,18.4,63.8v577.3c0,64.4-26.6,96.6-79.8,96.6c-13.3,0-25.3-1.9-35.9-5.8c-10.6-3.9-20.6-9.9-29.9-18.3
		s-18-18.1-25.9-29.3c-8-11.2-16-22.6-23.9-34.3L332,370.4v429.9c0,28-6.5,49.2-19.5,63.6c-13,14.3-29.7,21.5-50,21.5
		c-21,0-37.8-7.3-50.5-21.8c-12.7-14.5-19-35.6-19-63.3V234c0-24,2.7-42.9,8-56.6c6.3-15,16.8-27.3,31.5-36.8
		c14.7-9.5,30.5-14.3,47.5-14.3c13.3,0,24.8,2.2,34.3,6.5c9.5,4.3,17.8,10.2,25,17.5c7.2,7.3,14.5,16.8,22,28.5
		C368.8,190.5,376.5,202.7,384.5,215.4z"/>
</g>
<g>
</g>
<g>
</g>
<g>
</g>
<g>
</g>
<g>
</g>
<g>
</g>
<g>
</g>
<g>
</g>
<g>
</g>
<g>
</g>
<g>
</g>
<g>
</g>
<g>
</g>
<g>
</g>
<g>
</g>
</svg>
